<?xml version="1.0" encoding="UTF-8"?>
<svg width="1200pt" height="1200pt" version="1.1" viewBox="0 0 1200 1200" xmlns="http://www.w3.org/2000/svg">
 <path d="m477.37 925.82c-25.922 0-53.109-9.0469-83.109-27.609-4.5938-2.8594-7.4531-7.8281-7.5469-13.219-1.125-48.281 11.484-86.297 37.5-112.92 23.859-24.422 57.328-37.359 96.703-37.359 69 0 137.26 39.984 158.81 93 2.2969 5.625 1.1719 12.094-2.8594 16.594-4.0312 4.5469-10.312 6.4219-16.172 4.7812-5.3906-1.4531-10.922-2.2031-16.5-2.2031-27.516 0-52.453 17.766-68.484 32.672-33.984 31.547-65.203 46.219-98.297 46.219zm-58.781-50.297c21.75 12.328 41.016 18.375 58.781 18.375 24.844 0 48.469-11.625 76.547-37.688 18.562-17.25 47.062-37.5 80.859-40.781-25.031-28.688-69.75-48.75-113.91-48.75-21.328 0-51.469 4.8281-73.875 27.703-18.281 18.75-27.844 45.984-28.453 81.141z" fill-rule="evenodd"/>
 <path d="m402.66 900.56c-3.0938 0-6.1875-0.89062-8.9062-2.7188-7.3125-4.9219-9.2344-14.812-4.3594-22.125 0.98438-1.4531 99.047-143.63 282.37-56.391 7.9688 3.7969 11.344 13.312 7.5469 21.281s-13.359 11.344-21.281 7.5469c-157.92-75.141-238.78 40.453-242.16 45.375-3.0938 4.5469-8.1094 7.0312-13.266 7.0312z" fill-rule="evenodd"/>
 <path d="m325.87 1116.7c-1.5469 0-3.0938-0.23438-4.6406-0.70312-8.4375-2.5781-13.219-11.484-10.688-19.922 0.98438-3.2344 96.188-327.05-61.828-552.66-5.0625-7.2188-3.3281-17.203 3.9375-22.219 7.2188-5.0625 17.203-3.3281 22.219 3.9375 167.06 238.5 70.453 566.39 66.281 580.22-2.1094 6.8906-8.4375 11.344-15.281 11.344z" fill-rule="evenodd"/>
 <path d="m355.36 925.64c-5.0625 0-10.078-2.3906-13.172-6.8906-5.0156-7.2656-3.1875-17.203 4.0781-22.219 29.25-20.203 50.766-26.906 51.703-27.188 8.4375-2.5781 17.391 2.1562 19.969 10.594s-2.1562 17.297-10.547 19.922c-0.1875 0.09375-18.141 5.8125-42.984 22.969-2.7656 1.9219-5.9062 2.8125-9.0469 2.8125z" fill-rule="evenodd"/>
 <path d="m203.53 802.08c-33.047 0-64.266-14.672-98.25-46.219-16.078-14.906-41.016-32.672-68.484-32.672-5.5781 0-11.109 0.75-16.5 2.2031-5.8594 1.6406-12.094-0.23438-16.172-4.7812-4.0312-4.5469-5.1562-10.969-2.8594-16.594 21.516-53.016 89.812-93 158.81-93 39.422 0 72.844 12.891 96.703 37.359 26.016 26.672 38.625 64.641 37.5 112.92-0.14062 5.3906-2.9531 10.359-7.5469 13.219-30.047 18.562-57.234 27.609-83.109 27.609zm-157.4-110.39c33.797 3.2812 62.297 23.531 80.859 40.781 28.125 26.062 51.703 37.688 76.547 37.688 17.766 0 37.078-6 58.781-18.375-0.60938-35.109-10.172-62.391-28.453-81.141-22.359-22.922-52.5-27.703-73.875-27.703-44.156 0-88.875 20.109-113.91 48.75z" fill-rule="evenodd"/>
 <path d="m278.29 776.86c-5.1562 0-10.172-2.4844-13.266-7.0312-3.4688-5.1562-84.375-120.47-242.16-45.375-7.9688 3.7969-17.484 0.42188-21.281-7.5469-3.7969-7.9688-0.42188-17.484 7.5469-21.281 183.32-87.281 281.39 54.984 282.37 56.391 4.9219 7.3125 2.9531 17.25-4.3594 22.172-2.7188 1.8281-5.8125 2.6719-8.8594 2.6719z" fill-rule="evenodd"/>
 <path d="m353.72 824.11c-3.7969 0-7.5938-1.3125-10.641-4.0312-37.781-33.656-69.281-43.828-69.562-43.922-8.3906-2.625-13.078-11.578-10.5-19.969 2.625-8.3906 11.484-13.078 19.922-10.547 1.5469 0.46875 38.016 11.953 81.422 50.625 6.6094 5.8594 7.1719 15.984 1.3125 22.547-3.1875 3.5156-7.5469 5.3438-11.953 5.3438z" fill-rule="evenodd"/>
 <path d="m481.78 514.5c-1.1719 0-2.3906-0.14062-3.5625-0.42188-5.1562-1.1719-9.4219-4.875-11.344-9.8438l-52.359-135.94c-2.1094-5.5312-1.0312-11.766 2.8594-16.219s9.8906-6.4219 15.656-5.1094l91.5 21.047c5.1562 1.1719 9.4219 4.875 11.297 9.7969l22.266 57.469c2.3438 6.0938 0.79688 12.984-3.9844 17.438l-61.453 57.422c-3 2.8125-6.8906 4.3125-10.922 4.3125zm-26.625-129.61 33.047 85.781 36.234-33.891-15.328-39.516-54-12.422z" fill-rule="evenodd"/>
 <path d="m1092.6 327.24c-4.8281 0-9.5625-2.2031-12.656-6.2344l-129.05-167.76c-2.7656-3.5625-3.8438-8.1562-3.0469-12.609 0.79688-4.4531 3.4688-8.3438 7.3125-10.734l58.266-36.094c11.156-6.8906 24-10.547 37.125-10.547 24.797 0 47.344 12.516 60.328 33.469l53.156 85.828c20.531 33.188 10.266 76.875-22.922 97.453l-40.078 24.797c-2.625 1.6406-5.5312 2.3906-8.4375 2.3906zm-105.66-179.48 109.5 142.31 27.797-17.203c18.234-11.297 23.859-35.297 12.562-53.484l-53.156-85.828c-7.125-11.484-19.5-18.375-33.188-18.375-7.1719 0-14.203 2.0156-20.297 5.7656l-43.266 26.766z" fill-rule="evenodd"/>
 <path d="m733.22 492.74c-0.98438 0-1.9688-0.09375-2.9531-0.28125l-190.03-35.672c-5.4375-1.0312-9.9375-4.7812-11.953-9.9375l-22.266-57.422c-1.7812-4.5469-1.3594-9.6562 1.125-13.875s6.75-7.0312 11.578-7.7344l156.37-21.656c6.75-0.9375 13.5 2.625 16.547 8.8125l54.891 112.78c1.7812 2.5781 2.8125 5.6719 2.8125 9 0 8.8125-7.1719 15.984-15.984 15.984-0.046875-0.046876-0.09375 0-0.1875 0zm-178.36-65.719 150.1 28.219-36.938-75.844-124.92 17.297z" fill-rule="evenodd"/>
 <path d="m820.22 671.39c-1.5 0-2.9531-0.1875-4.4531-0.60938-4.3594-1.2656-7.9688-4.2656-9.9375-8.3438l-180.89-371.48c-3.5625-7.3594-0.98437-16.266 5.9531-20.578l292.74-181.26c6.9844-4.3125 16.078-2.6719 21.094 3.8438l251.9 327.52c2.7656 3.5625 3.8438 8.1562 3.0469 12.609-0.79688 4.4531-3.4688 8.3438-7.3125 10.734l-363.74 225.24c-2.5312 1.5938-5.4844 2.3906-8.3906 2.3906zm-160.22-381.47 166.82 342.61 333.71-206.63-232.31-302.02-268.22 166.08z" fill-rule="evenodd"/>
 <path d="m849.42 570.56c-5.9062 0-11.625-3.2812-14.391-9l-118.97-244.31c-3.8438-7.9219-0.5625-17.484 7.3594-21.375 7.9219-3.8438 17.484-0.5625 21.375 7.3594l118.97 244.31c3.8438 7.9219 0.5625 17.484-7.3594 21.375-2.25 1.0781-4.6406 1.5938-6.9844 1.5938z" fill-rule="evenodd"/>
 <path d="m327.74 490.92c-1.8281 0-3.6562-0.28125-5.4375-0.9375-8.2969-3-12.609-12.141-9.5625-20.438 18.75-51.75 44.156-75.609 45.234-76.594 6.4688-5.9531 16.594-5.5312 22.547 0.9375 5.9531 6.4688 5.5781 16.5-0.84375 22.5-0.46875 0.42188-21.141 20.484-36.938 64.031-2.3438 6.5156-8.4844 10.547-15 10.547z" fill-rule="evenodd"/>
 <path d="m370.55 544.92c-1.8281 0-3.6562-0.28125-5.4375-0.9375-8.2969-3-12.609-12.141-9.5625-20.438 18.75-51.797 44.156-75.609 45.234-76.594 6.4688-5.9531 16.594-5.5312 22.547 0.9375s5.5781 16.5-0.84375 22.5c-0.46875 0.42188-21.141 20.484-36.938 64.031-2.3438 6.5156-8.4844 10.547-15 10.547z" fill-rule="evenodd"/>
 <path d="m400.13 616.69c-1.8281 0-3.6562-0.28125-5.4375-0.9375-8.2969-3-12.609-12.141-9.5625-20.438 18.75-51.75 44.156-75.609 45.234-76.594 6.4688-6 16.594-5.5781 22.547 0.9375 5.9531 6.4688 5.5781 16.5-0.84375 22.5-0.46875 0.42188-21.141 20.484-36.938 64.031-2.3438 6.5156-8.4844 10.547-15 10.547z" fill-rule="evenodd"/>
 <path d="m764.48 1116.7c-0.79688 0-1.5938-0.046875-2.3906-0.1875-8.7188-1.3125-14.719-9.4219-13.406-18.141 13.453-89.578 43.453-168.14 89.203-233.44 5.0625-7.2188 15-8.9531 22.219-3.9375 7.2188 5.0625 8.9531 15 3.9375 22.219-42.938 61.266-71.109 135.24-83.812 219.84-1.2188 7.9219-8.0156 13.594-15.797 13.594z" fill-rule="evenodd"/>
 <path d="m925.69 915.28c-25.922 0-53.109-9.0469-83.109-27.609-4.5938-2.8594-7.4531-7.8281-7.5469-13.219-1.125-48.281 11.484-86.297 37.5-112.92 23.859-24.422 57.281-37.359 96.703-37.359 69 0 137.26 39.984 158.81 93 2.2969 5.625 1.1719 12.094-2.8594 16.594-4.0781 4.5469-10.359 6.375-16.172 4.7812-5.3906-1.5-10.922-2.25-16.5-2.25-27.516 0-52.453 17.766-68.484 32.672-33.984 31.547-65.25 46.219-98.297 46.219zm-58.781-50.297c21.75 12.328 41.016 18.375 58.781 18.375 24.844 0 48.469-11.625 76.594-37.688 18.562-17.25 47.062-37.5 80.859-40.734-25.031-28.688-69.75-48.75-113.91-48.75-21.375 0-51.469 4.8281-73.875 27.703-18.328 18.75-27.844 45.984-28.453 81.141z" fill-rule="evenodd"/>
 <path d="m850.92 890.06c-3.0469 0-6.1406-0.89062-8.8594-2.7188-7.3125-4.9219-9.2812-14.859-4.3594-22.172 2.0156-2.9531 50.062-73.172 144.05-83.578 8.7188-0.98438 16.688 5.3438 17.625 14.109 0.98438 8.7656-5.3438 16.688-14.109 17.625-79.406 8.7656-120.61 69-121.03 69.609-3.0938 4.5938-8.1094 7.0781-13.266 7.0781z" fill-rule="evenodd"/>
 <path d="m1182 1116.7h-1140c-8.8125 0-15.984-7.1719-15.984-15.984s7.1719-15.984 15.984-15.984h1140c8.8125 0 15.984 7.1719 15.984 15.984s-7.125 15.984-15.984 15.984z" fill-rule="evenodd"/>
</svg>
